<svg width="49" height="50" viewBox="0 0 49 50" fill="none" xmlns="http://www.w3.org/2000/svg">
<ellipse cx="24.5" cy="25" rx="24.5" ry="25" fill="#6278D7"/>
<path fill-rule="evenodd" clip-rule="evenodd" d="M21.0332 10.816C21.7212 10.644 22.3792 10.5289 23.0441 10.4597C23.1966 10.4438 23.3028 10.4092 23.3687 10.2626C23.4795 10.0158 23.677 9.92128 23.9521 9.89314C24.6919 9.81755 25.4262 9.81231 26.1679 9.88201C26.5258 9.91567 26.7642 10.0398 26.9016 10.3612C26.9557 10.4878 27.0486 10.5345 27.1881 10.5479C27.4792 10.5758 27.7686 10.6188 28.0574 10.6714C28.4322 10.7397 28.8035 10.8263 29.1926 10.9136C29.1253 10.6045 29.0209 10.3425 28.9035 10.0858C28.4542 9.10403 27.7339 8.43576 26.662 8.16494C25.8569 7.96152 25.0421 7.97927 24.2258 8.04392C23.7147 8.08438 23.227 8.22315 22.7718 8.46224C21.8235 8.9603 21.3569 9.81047 21.0332 10.816ZM11.4529 11.7127C11.8086 11.898 12.0938 12.1283 12.3504 12.3968C12.9466 13.0206 13.357 13.7643 13.7374 14.5251C14.1601 15.3705 14.4927 16.2539 14.8065 17.1486C14.8687 17.097 14.8734 17.0351 14.8868 16.9752C15.0466 16.2671 15.2345 15.5669 15.4752 14.881C15.9017 13.6657 16.4727 12.542 17.5122 11.7162C17.6167 11.6333 17.6082 11.5755 17.531 11.4779C17.2017 11.0609 16.8463 10.669 16.4315 10.3348C16.1035 10.0705 15.7267 9.93682 15.2983 9.94638C14.3579 9.96744 13.5024 10.2703 12.6909 10.7153C12.2237 10.9714 11.7889 11.2712 11.4529 11.7127ZM23.8253 10.8355L23.728 10.8551C23.7135 10.8504 23.6985 10.8407 23.6844 10.8417C22.4525 10.9338 21.2302 11.0819 20.0438 11.4451C18.7732 11.834 17.7927 12.5898 17.1113 13.7234C16.5687 14.6261 16.2721 15.6243 16.0017 16.628C15.719 17.6775 15.5226 18.7471 15.3481 19.8188C15.0664 21.5487 14.8524 23.2882 14.651 25.0288C14.5041 26.2986 14.374 27.5704 14.2478 28.8425C14.0687 30.6492 13.9096 32.4573 13.8974 34.2749C13.8866 35.8702 13.9224 37.4601 14.4185 38.9997C14.744 40.0093 15.3039 40.8392 16.2461 41.3923C17.2222 41.9654 18.2908 42.2751 19.385 42.508C21.0054 42.853 22.6521 42.9665 24.3046 42.9925C26.081 43.0205 27.8557 42.978 29.6177 42.7236C30.9098 42.5368 32.1768 42.253 33.3757 41.7181C34.4656 41.2319 35.261 40.4744 35.6936 39.3488C36.1231 38.2314 36.2702 37.0656 36.3202 35.8868C36.4333 33.2232 36.1736 30.576 35.9011 27.9318C35.7011 25.9907 35.4838 24.0512 35.2211 22.117C35.0603 20.9342 34.8897 19.7535 34.6656 18.5811C34.4053 17.2201 34.0962 15.8723 33.5616 14.5858C32.9101 13.0178 31.8142 11.9107 30.1502 11.436C28.0826 10.8462 25.9657 10.7035 23.8253 10.8355ZM36.8491 27.2367C36.8501 27.3913 36.8547 27.5455 36.8949 27.6962C36.9386 28.1098 36.9824 28.5234 37.026 28.937C37.007 29.0155 37.0167 29.0896 37.0544 29.1901C37.0853 29.0854 37.1525 29.0263 37.1312 28.9394C37.2641 28.2918 37.397 27.6443 37.5298 26.9967C37.5574 26.9254 37.5836 26.8538 37.5691 26.7751C37.6463 26.5979 37.6638 26.4056 37.7116 26.221C38.0005 25.1023 38.1975 23.9656 38.3831 22.8269C38.5875 21.5738 38.7636 20.3157 38.9906 19.0667C39.2697 17.5309 39.3949 15.9865 39.3404 14.429C39.3203 13.8528 39.2929 13.273 39.1368 12.6741C39.0068 12.7747 38.8929 12.8504 38.7937 12.9418C38.3353 13.3643 38.0103 13.886 37.7191 14.4257C36.8895 15.963 36.3514 17.6125 35.8486 19.2749C35.8231 19.3595 35.8378 19.4398 35.8523 19.5235C36.1124 21.0315 36.3014 22.5493 36.4804 24.0683C36.6048 25.1243 36.7263 26.1805 36.8491 27.2367ZM10.9682 13.0782C10.885 13.408 10.8893 13.7451 10.8887 14.081C10.886 15.6075 11.0532 17.1197 11.2542 18.6314C11.4287 19.9444 11.6713 21.2448 11.9075 22.5466C12.1367 23.8094 12.3687 25.0717 12.6184 26.3305C12.8558 27.5279 12.9416 28.7405 13.0318 29.9536C13.0384 30.0421 13.0229 30.1377 13.0852 30.2258C13.0972 30.2009 13.1125 30.183 13.1142 30.1639C13.2758 28.3883 13.4611 26.6155 13.671 24.8448C13.8755 23.1208 14.0705 21.3961 14.3586 19.6833C14.3962 19.4597 14.4429 19.2411 14.3579 19.0065C14.1915 18.5471 14.0661 18.0732 13.9062 17.6113C13.483 16.3894 13.0321 15.1775 12.3566 14.0647C12.0829 13.6139 11.7998 13.1649 11.3617 12.8434C11.2623 12.7589 11.1541 12.6084 11.0354 12.6614C10.9365 12.7056 10.9722 12.8901 10.9533 13.0134C10.9502 13.0338 10.9628 13.0565 10.9682 13.0782ZM37.3544 10.6527C36.4442 10.2181 35.4844 9.99503 34.4743 10.003C34.172 10.0054 33.9021 10.1257 33.6753 10.3241C33.2696 10.679 32.9875 11.1241 32.7457 11.5984C32.6962 11.6954 32.7494 11.7349 32.812 11.7861C33.0984 12.0207 33.3529 12.2858 33.5784 12.579C34.3801 13.622 34.7901 14.8357 35.1281 16.0803C35.2313 16.4597 35.3232 16.8421 35.4323 17.2705C35.7635 16.3394 36.0836 15.4553 36.5031 14.6127C37.0132 13.5881 37.5621 12.5887 38.5184 11.8875L38.6425 11.8088L38.75 11.7498C38.8498 11.7139 38.7894 11.6777 38.7502 11.6416C38.7304 11.5639 38.6789 11.509 38.6175 11.4614C38.5666 11.3654 38.4855 11.301 38.3927 11.2485C38.1848 11.0552 37.9428 10.9142 37.6861 10.7959C37.5799 10.7383 37.4828 10.6599 37.3544 10.6527Z" fill="#F2F2F2"/>
<path fill-rule="evenodd" clip-rule="evenodd" d="M29.4785 38.5385L24.5934 38.5307C23.1967 38.5404 21.7985 38.589 20.4039 38.5093C19.2063 38.4408 18.1142 37.5158 17.7721 36.3657C17.6534 35.9663 17.5847 35.5614 17.5912 35.1438C17.5983 34.6859 17.5991 34.2277 17.6026 33.7697C17.6049 33.6799 17.6072 33.5898 17.6096 33.4999C17.5803 32.9539 17.5807 32.4077 17.609 31.8617C17.607 31.7716 17.6048 31.6817 17.6027 31.5918C17.6007 30.2464 17.4971 28.8948 17.6443 27.5574C17.8294 25.8746 19.2681 24.7191 20.8786 24.7324C23.7037 24.7558 26.5292 24.7574 29.354 24.7322C31.11 24.7166 32.5081 25.9949 32.6285 27.7539C32.7038 28.8528 32.6626 29.9558 32.6448 31.0572L32.619 35.6271C32.4933 36.9206 31.8909 37.9086 30.5978 38.3679C30.2375 38.4959 29.8581 38.5373 29.4785 38.5385Z" fill="#F2F2F2"/>
</svg>
